<?xml version="1.0" encoding="utf-8"?>
<!-- Generator: Adobe Illustrator 22.1.0, SVG Export Plug-In . SVG Version: 6.00 Build 0)  -->
<svg version="1.1" id="Layer_1" xmlns="http://www.w3.org/2000/svg" xmlns:xlink="http://www.w3.org/1999/xlink" x="0px" y="0px"
	 viewBox="0 0 1280 1280" enable-background="new 0 0 1280 1280" xml:space="preserve">
<path fill="#668BDD" d="M1203,640c0,9.6-0.2,19.1-0.7,28.6c-0.5,9.9-1.2,19.7-2.2,29.4c-4.9,47.6-15.7,93.4-31.6,136.7
	c-79.2,215-285.9,368.3-528.4,368.3C329,1203,77,950.9,77,640S329,77,640,77c276.8,0,506.9,199.7,554.1,462.8
	C1199.9,572.3,1203,605.8,1203,640z"/>
<path fill="#BABABA" d="M271.1,315.4l3.7-9.3C273.3,309.1,272.1,312.3,271.1,315.4z"/>
<path fill="#8C8C8C" d="M257.6,347.3l209,792.9c8.3,31.3,40.4,50,71.7,41.8l401.6-105.9c20-5.3,34.9-20.4,40.9-38.7l19.3-47.8
	L945,865.2L772.6,211.5c-8.3-31.3-40.4-50-71.7-41.8l-398.4,105L282,255.6l-20.2,50.6l-3.7,9.3v0
	C255.1,325.5,254.7,336.4,257.6,347.3z"/>
<g>
	<path fill="#BABABA" d="M284.9,272.6l221.4,839.9c4.8,18.4,23.6,29.3,42,24.5l448.6-118.3c18.4-4.8,29.3-23.6,24.5-42L799.9,136.8
		c-4.8-18.4-23.6-29.3-42-24.5L309.3,230.6C291,235.4,280,254.2,284.9,272.6z"/>
	<path fill="#BABABA" d="M284.9,272.6l221.4,839.9c4.8,18.4,23.6,29.3,42,24.5l448.6-118.3c18.4-4.8,29.3-23.6,24.5-42L799.9,136.8
		c-4.8-18.4-23.6-29.3-42-24.5L309.3,230.6C291,235.4,280,254.2,284.9,272.6z"/>
	<path fill="#BABABA" d="M284.9,272.6l221.4,839.9c4.8,18.4,23.6,29.3,42,24.5l448.6-118.3c18.4-4.8,29.3-23.6,24.5-42L799.9,136.8
		c-4.8-18.4-23.6-29.3-42-24.5L309.3,230.6C291,235.4,280,254.2,284.9,272.6z"/>
	<path fill="#BABABA" d="M284.9,272.6l221.4,839.9c4.8,18.4,23.6,29.3,42,24.5l448.6-118.3c18.4-4.8,29.3-23.6,24.5-42L799.9,136.8
		c-4.8-18.4-23.6-29.3-42-24.5L309.3,230.6C291,235.4,280,254.2,284.9,272.6z"/>
	<path fill="#BABABA" d="M284.9,272.6l221.4,839.9c4.8,18.4,23.6,29.3,42,24.5l448.6-118.3c18.4-4.8,29.3-23.6,24.5-42L799.9,136.8
		c-4.8-18.4-23.6-29.3-42-24.5L309.3,230.6C291,235.4,280,254.2,284.9,272.6z"/>
	<path fill="#BABABA" d="M284.9,272.6l221.4,839.9c4.8,18.4,23.6,29.3,42,24.5l448.6-118.3c18.4-4.8,29.3-23.6,24.5-42L799.9,136.8
		c-4.8-18.4-23.6-29.3-42-24.5L309.3,230.6C291,235.4,280,254.2,284.9,272.6z"/>
</g>
<path fill="#FFFFFF" d="M335.5,281l210.7,799.2c3.5,13.2,17,21,30.1,17.6l376.8-99.3c13.2-3.5,21-17,17.6-30.1L760,169.1
	c-3.5-13.2-17-21-30.1-17.6l-376.8,99.3C339.9,254.3,332,267.8,335.5,281z"/>
<line fill="none" stroke="#3A3A3A" stroke-width="10" stroke-miterlimit="10" x1="716.8" y1="227.2" x2="402" y2="311.2"/>
<line fill="none" stroke="#3A3A3A" stroke-width="10" stroke-miterlimit="10" x1="764.7" y1="395.7" x2="450" y2="479.7"/>
<line fill="none" stroke="#3A3A3A" stroke-width="10" stroke-miterlimit="10" x1="835.1" y1="675.9" x2="520.3" y2="759.9"/>
<line fill="none" stroke="#3A3A3A" stroke-width="10" stroke-miterlimit="10" x1="780.3" y1="454.2" x2="465.6" y2="538.1"/>
<line fill="none" stroke="#3A3A3A" stroke-width="10" stroke-miterlimit="10" x1="797.4" y1="518.2" x2="482.6" y2="602.1"/>
<path fill="#C0FF8D" d="M587.2,998.9l317.2-83.6c15-3.9,23.9-19.3,19.9-34.2l-13.5-51.1c-3.9-15-19.3-23.9-34.2-19.9l-317.2,83.6
	c-15,3.9-23.9,19.3-19.9,34.2l13.5,51.1C556.9,993.9,572.3,1002.8,587.2,998.9z"/>
<g>
	<path fill="#FFBDAB" d="M1200,698c-4.9,47.6-15.7,93.4-31.6,136.7c-61.2,15-115.8,40.5-155.2,78.6c-2.3,2.2-4.6,4.3-6.9,6.4
		c-5.9,5.1-11.9,9.8-18.1,13.9c-0.8,0.5-1.5,1-2.3,1.5c-7,4.5-14,8.4-21,11.7c-3,1.4-6,2.7-9,3.8c-4.5,1.7-8.9,3.2-13.3,4.4
		c-37.2,10.2-67.9,0.4-69.3-27.7c-0.1-1.2-0.1-2.5,0-3.8c0.7-18.2,12.8-43.2,41.4-74.6c0.3-0.3,0.5-0.6,0.8-0.8
		c3.3-3.6,6.8-7.3,10.5-11c2.5-2.5,5.2-5.1,7.9-7.8c0.5-0.4,0.9-0.9,1.4-1.3c3.3-3.1,6.7-6.2,10.3-9.4c2.5-2.2,5.1-4.4,7.8-6.7
		c6.4-5.3,13.1-10.6,20.2-15.8C1030.7,754,1111.4,714.4,1200,698z"/>
</g>
</svg>
