<?xml version="1.0" encoding="utf-8"?>
<!-- Generator: Adobe Illustrator 22.1.0, SVG Export Plug-In . SVG Version: 6.00 Build 0)  -->
<svg version="1.1" id="Layer_1" xmlns="http://www.w3.org/2000/svg" xmlns:xlink="http://www.w3.org/1999/xlink" x="0px" y="0px"
	 viewBox="0 0 1280 1280" enable-background="new 0 0 1280 1280" xml:space="preserve">
<path fill="#668BDD" d="M1203,640c0,310.9-252,563-563,563c-301.3,0-547.4-236.8-562.3-534.4c-0.5-9.5-0.7-19-0.7-28.6
	c0-34.2,3-67.7,8.9-100.2C133.1,276.7,363.2,77,640,77C950.9,77,1203,329.1,1203,640z"/>
<path fill="#BABABA" d="M1008.9,315.4l-3.7-9.3C1006.7,309.1,1007.9,312.3,1008.9,315.4z"/>
<path fill="#8C8C8C" d="M1009.4,347.3l-209,792.9c-8.3,31.3-40.4,50-71.7,41.8l-401.6-105.9c-20-5.3-34.9-20.4-40.9-38.7L267,989.5
	L322,865.2l172.3-653.7c8.3-31.3,40.4-50,71.7-41.8l398.4,105l20.6-19.2l20.2,50.6l3.7,9.3v0
	C1011.9,325.5,1012.3,336.4,1009.4,347.3z"/>
<g>
	<path fill="#BABABA" d="M995.1,272.6l-221.4,839.9c-4.8,18.4-23.6,29.3-42,24.5l-448.6-118.3c-18.4-4.8-29.3-23.6-24.5-42
		L480,136.8c4.8-18.4,23.6-29.3,42-24.5l448.6,118.3C989,235.4,1000,254.2,995.1,272.6z"/>
	<path fill="#BABABA" d="M995.1,272.6l-221.4,839.9c-4.8,18.4-23.6,29.3-42,24.5l-448.6-118.3c-18.4-4.8-29.3-23.6-24.5-42
		L480,136.8c4.8-18.4,23.6-29.3,42-24.5l448.6,118.3C989,235.4,1000,254.2,995.1,272.6z"/>
	<path fill="#BABABA" d="M995.1,272.6l-221.4,839.9c-4.8,18.4-23.6,29.3-42,24.5l-448.6-118.3c-18.4-4.8-29.3-23.6-24.5-42
		L480,136.8c4.8-18.4,23.6-29.3,42-24.5l448.6,118.3C989,235.4,1000,254.2,995.1,272.6z"/>
	<path fill="#BABABA" d="M995.1,272.6l-221.4,839.9c-4.8,18.4-23.6,29.3-42,24.5l-448.6-118.3c-18.4-4.8-29.3-23.6-24.5-42
		L480,136.8c4.8-18.4,23.6-29.3,42-24.5l448.6,118.3C989,235.4,1000,254.2,995.1,272.6z"/>
	<path fill="#BABABA" d="M995.1,272.6l-221.4,839.9c-4.8,18.4-23.6,29.3-42,24.5l-448.6-118.3c-18.4-4.8-29.3-23.6-24.5-42
		L480,136.8c4.8-18.4,23.6-29.3,42-24.5l448.6,118.3C989,235.4,1000,254.2,995.1,272.6z"/>
	<path fill="#BABABA" d="M995.1,272.6l-221.4,839.9c-4.8,18.4-23.6,29.3-42,24.5l-448.6-118.3c-18.4-4.8-29.3-23.6-24.5-42
		L480,136.8c4.8-18.4,23.6-29.3,42-24.5l448.6,118.3C989,235.4,1000,254.2,995.1,272.6z"/>
</g>
<path fill="#FFFFFF" d="M944.5,281l-210.7,799.2c-3.5,13.2-17,21-30.1,17.6l-376.8-99.3c-13.2-3.5-21-17-17.6-30.1L520,169.1
	c3.5-13.2,17-21,30.1-17.6l376.8,99.3C940.1,254.3,948,267.8,944.5,281z"/>
<line fill="none" stroke="#0089FF" stroke-width="15" stroke-miterlimit="10" x1="563.7" y1="214" x2="666.2" y2="241.3"/>
<line fill="none" stroke="#3A3A3A" stroke-width="10" stroke-miterlimit="10" x1="531.7" y1="334.1" x2="846.5" y2="418"/>
<line fill="none" stroke="#3A3A3A" stroke-width="10" stroke-miterlimit="10" x1="514.6" y1="398.1" x2="829.4" y2="482"/>
<line fill="none" stroke="#3A3A3A" stroke-width="10" stroke-miterlimit="10" x1="499.7" y1="454.2" x2="814.4" y2="538.1"/>
<line fill="none" stroke="#3A3A3A" stroke-width="10" stroke-miterlimit="10" x1="482.6" y1="518.2" x2="797.4" y2="602.1"/>
<line fill="none" stroke="#3A3A3A" stroke-width="10" stroke-miterlimit="10" x1="415.7" y1="768.9" x2="730.5" y2="852.9"/>
<line fill="none" stroke="#3A3A3A" stroke-width="10" stroke-miterlimit="10" x1="398.7" y1="832.9" x2="713.4" y2="916.8"/>
<line fill="none" stroke="#3A3A3A" stroke-width="10" stroke-miterlimit="10" x1="383.7" y1="889" x2="698.5" y2="973"/>
<line fill="none" stroke="#3A3A3A" stroke-width="10" stroke-miterlimit="10" x1="366.7" y1="953" x2="681.4" y2="1036.9"/>
<g>
	<path fill="#FFBDAB" d="M423.3,771c-1.4,28.1-32.1,37.9-69.3,27.7c-4.4-1.2-8.8-2.6-13.3-4.4c-9.9-3.8-20-9-29.9-15.5
		c-9.3-6.1-18.5-13.3-27.3-21.8c-49.9-48.2-124.5-76.4-205.8-88.4c-0.5-9.5-0.7-19-0.7-28.6c0-34.2,3-67.7,8.9-100.2
		c104.1,16.9,198.2,66.5,257.4,115.8c6.5,5.3,12.5,10.7,18.1,16c3.2,3.1,6.3,6.1,9.3,9.1c4,4.1,7.8,8,11.3,11.9
		C412.6,726.3,424.3,752.6,423.3,771z"/>
</g>
</svg>
