<?xml version="1.0" encoding="utf-8"?>
<!-- Generator: Adobe Illustrator 22.1.0, SVG Export Plug-In . SVG Version: 6.00 Build 0)  -->
<svg version="1.1" id="Layer_1" xmlns="http://www.w3.org/2000/svg" xmlns:xlink="http://www.w3.org/1999/xlink" x="0px" y="0px"
	 viewBox="0 0 631 241" enable-background="new 0 0 631 241" xml:space="preserve">
<linearGradient id="SVGID_1_" gradientUnits="userSpaceOnUse" x1="114.0898" y1="176.4895" x2="-15.6725" y2="46.7272">
	<stop  offset="0" style="stop-color:#0088FF"/>
	<stop  offset="1" style="stop-color:#00CEFF"/>
</linearGradient>
<path fill="url(#SVGID_1_)" d="M49.2,241.4v-49.6c-27.4,0-49.6-22.2-49.6-49.6s22.2-49.6,49.6-49.6s49.6,22.2,49.6,49.6
	C98.8,191.8,49.2,241.4,49.2,241.4z M92.5,43.1c0-23.9-19.4-43.3-43.3-43.3S5.9,19.2,5.9,43.1s19.4,43.3,43.3,43.3
	S92.5,67,92.5,43.1z"/>
<g>
	<path fill="#FFFFFF" d="M138.1,174.9c-4.1-4.3-6.1-9.9-6.1-16.9c0-5.8,1.5-10.7,4.6-14.5c3-3.8,6.7-6.8,11.1-8.8
		c4.3-2.1,9.9-4.3,16.6-6.6c7.1-2.5,12.3-4.7,15.6-6.7c3.3-2,5-4.8,5-8.3V97.9c0-5.4-1.3-9.7-3.8-12.7c-2.5-3-6.4-4.6-11.8-4.6
		c-6.2,0-10.9,1.6-14.2,4.7c3.6,1.3,6.4,3.2,8.5,5.8c2,2.6,3,5.6,3,9.1c0,4.4-1.5,7.9-4.5,10.5c-3,2.6-6.6,3.9-10.9,3.9
		c-4.5,0-8-1.4-10.5-4.3c-2.5-2.8-3.7-6.4-3.7-10.7c0-3.6,0.9-6.7,2.6-9.2c1.7-2.5,4.4-4.9,8.1-7.1c3.5-2.1,7.8-3.7,12.9-4.9
		c5.1-1.2,10.7-1.7,16.8-1.7c6.3,0,11.8,0.6,16.5,1.9c4.7,1.3,8.5,3.5,11.7,6.6c2.8,2.9,4.8,6.3,5.7,10.5c1,4.1,1.5,9.8,1.5,16.9
		v52.8c0,3.1,0.3,5.3,0.9,6.6c0.6,1.3,1.7,1.9,3.4,1.9c1.9,0,4.3-1.1,7-3.3l1.9,3.3c-5.8,4.8-13,7.2-21.4,7.2
		c-7.1,0-12.1-1.4-15-4.3c-2.9-2.8-4.3-6.7-4.5-11.5c-6.5,10.5-16,15.7-28.6,15.7C148.4,181.3,142.2,179.1,138.1,174.9z
		 M184.8,160.9v-39.8c-1.6,2.6-4.9,5.4-9.9,8.5c-5.1,3.2-8.9,6.5-11.5,9.7c-2.6,3.2-3.9,7.9-3.9,14c0,5.3,1.1,9.2,3.3,11.8
		c2.2,2.5,5.1,3.8,8.7,3.8C176.7,168.8,181.1,166.2,184.8,160.9z M201.5,28.6c0,2.7-1,5.4-2.9,8c-1.4,1.7-3.2,3.4-5.3,5.1
		c-2.1,1.7-4.4,3.5-6.9,5.3c-7.8,5.4-14.6,10.9-20.6,16.5l-2.1-1.7c3.5-6.3,7.1-14.3,10.9-23.9c1.7-4,3-7,4-9c1-2,2.2-3.9,3.6-5.5
		c2.5-3.1,5.5-4.7,9.1-4.7c2.7,0,5,0.8,6.8,2.5C200.4,22.9,201.5,25.4,201.5,28.6z"/>
	<path fill="#FFFFFF" d="M317.1,95.5c-1.8-1.7-2.7-4.2-2.7-7.5c0-3.1,0.8-6.3,2.3-9.5c-3.1,1.3-5.7,2.8-7.7,4.4
		c-2,1.6-3.7,3.7-5.1,6.1c4,4.8,6,11,6,18.6c0,10.2-3.5,17.9-10.6,23.1c-7.1,5.2-16.4,7.8-28.1,7.8h-3.5c-5.3,3.1-8,6.5-8,10.3
		c0,4.1,2.6,6.2,7.8,6.2h21.2c11.4,0,20.5,2.1,27.3,6.3c6.8,4.2,10.2,10.7,10.2,19.3c0,6.6-2.1,12.6-6.3,18
		c-4.2,5.4-10.6,9.7-19.1,12.9c-8.5,3.2-19,4.9-31.5,4.9c-12.6,0-22.6-1.6-30.2-4.8c-7.6-3.2-11.4-7.7-11.4-13.7
		c0-4,1.8-7.6,5.4-10.8c3.6-3.2,9-5.7,16.1-7.5l1.7,3.1c-4.7,3.9-7,8.4-7,13.4c0,5.4,2.5,9.6,7.4,12.5c4.9,2.9,11.7,4.4,20.4,4.4
		c9.1,0,16.4-1.8,22-5.4c5.6-3.6,8.5-8.7,8.5-15.3c0-4.3-1.6-7.6-4.8-10.1c-3.2-2.5-8.7-3.7-16.6-3.7h-12c-8.3,0-14.8-1.4-19.4-4.2
		c-4.7-2.8-7-7-7-12.7c0-4.8,1.7-9.1,5.1-12.8c3.4-3.8,8.5-7.4,15.3-10.9c-9.3-1.2-16.7-4.3-22.1-9.3c-5.4-5.1-8.2-12-8.2-21
		c0-10.2,3.5-17.9,10.6-23.1c7.1-5.2,16.4-7.8,28.1-7.8c12.9,0,22.9,3,29.7,9.1c2.5-3.5,5.5-6.3,9.1-8.4c3.6-2.1,7.3-3.1,11.1-3.1
		c3.9,0,7,1.1,9.2,3.4c2.3,2.3,3.4,5.2,3.4,8.8c0,3.6-1,6.4-3,8.5c-2,2-4.4,3-7.1,3C321.1,98.1,318.9,97.3,317.1,95.5z M279.5,128.8
		c1.9-4.1,2.8-11.2,2.8-21.2c0-10-0.9-17-2.8-21.2c-1.9-4.1-4.6-6.2-8.3-6.2c-3.6,0-6.4,2.1-8.3,6.2c-1.9,4.1-2.8,11.2-2.8,21.2
		c0,10,0.9,17,2.8,21.2c1.9,4.1,4.6,6.2,8.3,6.2C274.9,135,277.7,133,279.5,128.8z"/>
	<path fill="#FFFFFF" d="M421.1,89.5c8.4,8.5,12.6,21.9,12.6,40.3c0,18.4-4.2,31.8-12.6,40.2c-8.4,8.4-20.1,12.6-35,12.6
		c-14.8,0-26.4-4.2-34.9-12.6c-8.5-8.4-12.7-21.8-12.7-40.2c0-18.4,4.2-31.8,12.7-40.3c8.5-8.5,20.1-12.7,34.9-12.7
		C401,76.8,412.6,81,421.1,89.5z M372.8,92.8c-3.3,8.1-5,20.4-5,37c0,16.6,1.7,28.9,5,36.9c3.3,8,7.7,12,13.3,12
		c5.7,0,10.2-4,13.4-11.9c3.2-8,4.9-20.3,4.9-37s-1.7-29.1-5-37.1c-3.3-8-7.7-12-13.3-12C380.5,80.7,376.1,84.7,372.8,92.8z"/>
	<path fill="#FFFFFF" d="M525.8,82c3,3.5,4.5,7.7,4.5,12.6c0,4.8-1.4,8.7-4.2,11.8c-2.8,3-6.4,4.6-11,4.6c-4.4,0-7.9-1.1-10.5-3.4
		c-2.6-2.3-3.9-5.3-3.9-9c0-6.2,2.8-11.3,8.5-15.2c-0.5-0.1-1.3-0.2-2.3-0.2c-1.3,0-2.3,0.1-3.1,0.4c-4.9,0.8-9.1,3.8-12.5,8.9
		c-3.4,5.2-5.1,10.5-5.1,15.9v51.5c0,6,1.5,10.1,4.4,12.4c2.9,2.3,7.5,3.5,13.9,3.5v4.1c-1.8,0-3.3-0.1-4.5-0.2
		c-13.2-0.4-22-0.6-26.4-0.6c-3.5,0-11.5,0.2-23.9,0.6c-1,0.1-2.3,0.2-3.9,0.2v-4.1c4.7,0,7.9-1,9.7-3c1.8-2,2.7-5.7,2.7-11v-61.2
		c0-6-0.9-10.3-2.7-13c-1.8-2.7-5.1-4.1-9.7-4.1v-4.1c4.1,0.4,8.2,0.6,12,0.6c11.5,0,21-0.9,28.4-2.7v18.1c2.5-5.6,6-10.1,10.7-13.5
		c4.7-3.4,9.9-5.1,15.7-5.1C518.4,76.8,522.8,78.5,525.8,82z"/>
	<path fill="#FFFFFF" d="M543.5,174.9c-4.1-4.3-6.1-9.9-6.1-16.9c0-5.8,1.5-10.7,4.6-14.5c3-3.8,6.7-6.8,11.1-8.8
		c4.3-2.1,9.9-4.3,16.6-6.6c7.1-2.5,12.3-4.7,15.6-6.7c3.3-2,5-4.8,5-8.3V97.9c0-5.4-1.3-9.7-3.8-12.7c-2.5-3-6.4-4.6-11.8-4.6
		c-6.2,0-10.9,1.6-14.2,4.7c3.6,1.3,6.4,3.2,8.5,5.8c2,2.6,3,5.6,3,9.1c0,4.4-1.5,7.9-4.5,10.5c-3,2.6-6.6,3.9-10.9,3.9
		c-4.5,0-8-1.4-10.5-4.3c-2.5-2.8-3.7-6.4-3.7-10.7c0-3.6,0.9-6.7,2.6-9.2s4.4-4.9,8.1-7.1c3.5-2.1,7.8-3.7,12.9-4.9
		c5.1-1.2,10.7-1.7,16.8-1.7c6.3,0,11.8,0.6,16.5,1.9c4.7,1.3,8.5,3.5,11.7,6.6c2.8,2.9,4.8,6.3,5.7,10.5c1,4.1,1.5,9.8,1.5,16.9
		v52.8c0,3.1,0.3,5.3,0.9,6.6c0.6,1.3,1.7,1.9,3.4,1.9c1.9,0,4.3-1.1,7-3.3l1.9,3.3c-5.8,4.8-13,7.2-21.4,7.2
		c-7.1,0-12.1-1.4-15-4.3c-2.8-2.8-4.3-6.7-4.5-11.5c-6.5,10.5-16,15.7-28.6,15.7C553.8,181.3,547.6,179.1,543.5,174.9z
		 M590.2,160.9v-39.8c-1.6,2.6-4.9,5.4-9.9,8.5c-5.1,3.2-8.9,6.5-11.5,9.7c-2.6,3.2-3.9,7.9-3.9,14c0,5.3,1.1,9.2,3.3,11.8
		c2.2,2.5,5.1,3.8,8.7,3.8C582.1,168.8,586.5,166.2,590.2,160.9z"/>
</g>
</svg>
